<?xml version="1.0" encoding="utf-8"?>
<!-- Generator: Adobe Illustrator 27.8.1, SVG Export Plug-In . SVG Version: 6.00 Build 0)  -->
<svg version="1.1" xmlns="http://www.w3.org/2000/svg" xmlns:xlink="http://www.w3.org/1999/xlink" x="0px" y="0px"
	 viewBox="0 0 212.86 62.49" style="enable-background:new 0 0 212.86 62.49;" xml:space="preserve">
<g id="Guides">
</g>
<g id="Artwork">
	<g>
		<path d="M69.06,21.14c0.12-0.54,1.97-5.32,3.21-7.82c0.56-0.07,1.24,0,1.92,0.49c2.15,1.69,4.01,6.93,5.93,7.12
			c0.8,0.07,2.46-1.19,1.48-1.17c-1.83,0.3-3.63-4.61-6.09-6.21c-0.54-0.33-1.24-0.54-1.9-0.66c1.9-0.4,4.36-1.17,6.42-2.65
			c2.44-1.76,3.19-4.01,0.8-5.46c-2.48-1.55-6.91-1.57-9.88-0.35c-2.23,0.89-3.58,2.95-3.16,4.12c0.12,0.4,1.05,0.61,0.7-0.02
			c-0.16-0.47,0.59-1.83,2.74-2.74c1.31-0.56,2.62-0.96,3.82-1.15c-0.84,1.43-2.79,5.27-4.12,8.01c-0.68,0.05-0.98,0.77-0.33,0.7
			l-0.4,0.87c-0.59,1.17-2.46,5.34-2.69,6.16C67.21,21.16,69.04,21.73,69.06,21.14z M77.05,4.49c0.82,0,1.57,0.14,2.2,0.37
			c2.18,0.89,0.91,3.61-1.41,5.22c-1.52,1.08-3.58,1.8-5.08,2.23C74.54,8.68,76.46,5.17,77.05,4.49z"/>
		<path d="M80.84,17.28c0.56,1.57,2.88,2.23,4.26,1.5c0.69-0.36,1.38-0.97,2.03-1.66c-0.12,0.29-0.2,0.51-0.2,0.65
			c-0.05,0.61,1.48,1.22,1.85,0.75c0.16-0.8,5.27-6.89,5.81-6.89c0.66,0-1.92,5.36-2.3,6.14c-0.3,0.75,1.43,1.57,1.66,0.87
			c0.23-0.73,5.69-7.12,6.3-6.82c0.21,0.12-2.2,3.82-2.23,5.71c0,0.98,1.43,1.76,2.62,1.19c0.57-0.26,1.54-1.33,2.42-2.46
			c-0.13,0.39-0.23,0.76-0.26,1.1c-0.09,1.17,1.57,1.73,2.34,1.41c0.89-0.38,2.48-2.34,3.79-4.1c-0.28,0.54-0.52,1.05-0.7,1.5
			c-0.4,0.91-0.75,1.85-1.27,2.83c-1.24,0.66-2.48,1.22-3.65,1.71c-1.48,0.61-2.65,1.05-2.76,1.97c-0.14,0.77,0.66,1.78,2.04,1.73
			c2.34-0.07,4.43-2.6,5.93-5.41c0.75-0.44,1.45-0.89,2.08-1.38c1.94-1.57,3.28-3.77,3.65-4.4c0.14-0.35-0.26-0.52-0.54-0.3
			c-0.56,0.66-1.64,2.46-3.37,3.91c-0.38,0.33-0.77,0.61-1.19,0.89l0.28-0.61c1.36-3.35,2.69-5.29,3.02-5.88
			c0.05-0.42-0.89-1.59-1.48-0.42l-0.4,0.73c-1.5,2.46-5.36,6.7-5.88,6.63c-1.36-0.12,2.79-6.86,2.97-7.47
			c0.19-0.56-1.41-0.94-1.76-0.44c0.02,0.33-0.62,1.43-1.32,2.73c-0.04,0.02-0.07,0.04-0.11,0.08c-0.7,1.15-4.17,5.34-4.73,5.06
			c-0.94-0.44,1.59-5.06,2.15-6.3c0.23-0.49-0.52-1.45-1.45-1.12c-1.85,0.68-6.28,6.14-6.28,6.14c0.4-0.94,2.06-4.15,2.23-5.25
			c0.19-0.77-0.94-1.36-1.57-1.12c-1.71,0.61-6,6.23-6,6.23s2.81-4.82,3-5.69c0.12-0.52-0.84-0.94-1.24-0.56
			c-0.11,0.42-0.79,1.65-1.53,2.98c-1.18,1.53-3.75,5.03-5.8,4.79c-0.77-0.09-1.08-0.82-1.05-1.48c0.02-0.37,0.12-0.8,0.28-1.24
			c1.9-0.77,5.22-2.46,5.41-3.65c0.16-1.03-1.64-2.67-3.26-1.9C82.69,10.88,79.97,14.84,80.84,17.28z M105.32,21.54
			c-1.59,1.92-2.55,1.99-2.95,2.04c-0.42,0.05-2.27-0.59,1.29-2.2c0.73-0.33,1.66-0.75,2.67-1.24
			C106.04,20.58,105.72,21.05,105.32,21.54z M86.49,10.72c1.03,0.56-1.48,2.67-3.58,3.82C83.96,12.45,85.88,10.41,86.49,10.72z"/>
		<path d="M127.78,17.68c0.14,0.82,1.5,1.59,2.16,1.29c1.03-0.52,2.72-2.48,3.37-3.47c-0.42,0.87-0.54,2.2-0.12,2.62
			c0.66,0.66,1.69,1.27,2.83,0.47c0.44-0.3,0.97-0.85,1.5-1.48c-0.12,0.29-0.2,0.53-0.21,0.66c-0.05,0.61,1.48,1.22,1.85,0.75
			c0.16-0.8,5.27-6.89,5.81-6.89c0.66,0-1.92,5.36-2.3,6.14c-0.3,0.75,1.43,1.57,1.66,0.87c0.23-0.73,5.69-7.12,6.3-6.82
			c0.21,0.12-2.2,3.82-2.23,5.71c0,0.98,1.43,1.76,2.62,1.19c0.59-0.27,1.61-1.41,2.51-2.58c-0.01,0.4,0.03,0.78,0.16,1.12
			c0.56,1.57,2.88,2.23,4.26,1.5c1.59-0.84,3.23-2.93,4.21-4.51c0.76-1.11,1.62-2.37,2.11-3.13c0.68,0.12,1.38,0.16,1.08,0.66
			c-0.49,0.89-2.37,3.84-2.06,5.6c0.19,1.36,1.99,1.9,2.95,1.17c0.66-0.51,1.51-1.42,2.28-2.36c-0.01,0.21-0.02,0.41,0,0.6
			c0.09,1.59,2.27,2.83,3.58,2.34c0.8-0.3,1.55-0.96,2.18-1.76c0.7,0.09,1.48-0.09,2.18-0.49c0.3-0.17,0.57-0.39,0.83-0.62
			c-0.37,0.77-0.65,1.37-0.71,1.55c-0.21,0.66,1.22,1.19,1.78,0.66c0.26-0.7,5.18-7.12,6.35-7.05c0.68,0.02-2.08,3.44-2.23,5.76
			c-0.07,1.29,1.85,2.23,3.09,1.36c1.26-0.89,3.02-3.02,4.1-5.01c0.07-0.21-0.09-0.7-0.44-0.45c-1.41,2.18-3.82,4.8-4.59,4.99
			c-2.04,0.47,1.05-4.54,1.76-6.3c0.42-1.08-0.84-1.8-1.8-1.5c-1.87,0.59-5.93,6.14-5.93,6.14s2.34-4.47,2.44-5.27
			c0.07-0.56-1.01-0.98-1.24-0.61c-0.1,0.49-0.72,1.85-1.4,3.28c-0.79,1.09-2.17,2.73-3.5,2.81h-0.14c1.01-1.52,1.64-3.3,1.66-4.08
			c0.05-1.33-0.8-1.71-1.57-1.71c0.07-0.02,0.09-0.07,0.05-0.19c-0.23-0.54-1.31-0.91-1.99-0.82c-1.84,0.28-3.52,2.58-4.17,4.81
			c-1.26,1.57-3.07,3.56-3.56,3.45c-1.22-0.21,0.7-4.33,1.87-5.88c0.77-0.98,0.09-1.29-0.63-1.48c-0.38-0.09-1.55-0.02-1.92-0.02
			c0.35-0.54,0.91-1.85,0.98-2.27c0.07-0.44-0.63-1.01-0.98-0.87c-0.54,0.21-1.62,2.3-1.36,3.04c0.02,0.14,0.12,0.23,0.26,0.3
			c-0.36,0.66-1.18,1.89-1.78,2.79c-1.27,1.65-3.64,4.7-5.55,4.47c-0.77-0.09-1.08-0.82-1.05-1.48c0.02-0.37,0.12-0.8,0.28-1.24
			c1.9-0.77,5.22-2.46,5.41-3.65c0.16-1.03-1.64-2.67-3.26-1.9c-1.28,0.61-2.87,2.5-3.59,4.42c-1.3,1.65-3.36,3.97-3.79,3.76
			c-0.94-0.44,1.59-5.06,2.15-6.3c0.23-0.49-0.52-1.45-1.45-1.12c-1.85,0.68-6.28,6.14-6.28,6.14c0.4-0.94,2.06-4.15,2.23-5.25
			c0.19-0.77-0.94-1.36-1.57-1.12c-1.71,0.61-6,6.23-6,6.23s2.81-4.82,3-5.69c0.12-0.52-0.84-0.94-1.24-0.56
			c-0.11,0.43-0.82,1.7-1.58,3.07c-0.86,1.27-3.41,4.48-4.41,4.61c-0.84,0.12-0.8-1.17-0.19-2.53c0.56-1.15,0.73-1.5,1.08-1.97
			c0.19-0.23-0.02-0.63-0.3-0.94c0.38-0.05,1.29-0.66,1.57-1.27c0.3-0.8-1.55-2.04-2.76-1.78c-1.08,0.23-2.44,0.8-4.17,2.72
			c-0.67,0.75-1.22,1.58-1.63,2.38c-1.99,2.38-5.27,5.81-7.31,5.53c-2.11-0.28-3.14-3.51,0.09-9.21c1.99-3.42,4.8-6.25,6.77-6.51
			c0.3,0,0.63,0.07,0.89,0.3c0.59,0.59-1.33,3.3-1.8,3.98c-0.45,0.61,0.14,0.77,0.66,0.35c0.56-0.47,1.71-1.24,2.58-2.9
			c0.7-1.43-2.04-2.76-3.3-2.65c-1.64,0.14-5.6,3.21-8.13,8.27c-2.11,4.29-1.78,6.65-0.35,7.89c1.22,1.05,3.3,1.73,5.18,0.73
			c1.16-0.62,2.67-2.1,3.95-3.56C127.76,17.24,127.75,17.48,127.78,17.68z M175.4,11.89c-0.12,1.33-0.94,2.97-1.94,4.31
			c-0.91-0.82-0.7-2.6,0.26-3.84C174.46,11.37,175.47,11.16,175.4,11.89z M173.57,10.79c0.49-0.12,0.98,0.05,1.24,0.07
			c-0.4,0.02-0.75,0.14-0.94,0.28c-1.41,1.05-2.48,3.42-1.31,5.13c0.12,0.19,0.28,0.37,0.42,0.52c-0.45,0.54-0.94,0.98-1.41,1.31
			c-0.59,0.42-1.62,0.66-1.69-0.54C169.76,14.84,172.07,11.14,173.57,10.79z M159.35,10.72c1.03,0.56-1.48,2.67-3.58,3.82
			C156.83,12.45,158.75,10.41,159.35,10.72z M131.53,13.25c1.22-1.69,3.58-3.09,4.24-2.74c0.59,0.33-0.28,1.62-0.35,2.04
			c-0.28-0.19-0.56-0.26-0.7-0.02c-0.89,1.62-4.36,5.67-5.22,5.5C128.98,17.93,129.54,15.99,131.53,13.25z"/>
		<path d="M28.98,16.09c0.55-1.18,1.29-2.26,2.18-3.2c0.83-0.89,1.79-1.66,2.82-2.31c0.95-0.6,1.97-1.1,3.03-1.49
			c2.01-0.75,4.18-1.04,6.33-0.9c0.15,0.01,0.33,0.02,0.45-0.08C44.2,7.77,43.19,7.45,43,7.38c-0.61-0.22-1.25-0.32-1.89-0.43
			c-0.6-0.11-1.2-0.2-1.8-0.27c-0.78-0.09-1.57-0.15-2.36-0.17c-1.64-0.03-3.29,0.14-4.87,0.6c-1.51,0.44-3,1.24-4.3,2.13
			c-2.12,1.46-4.07,3.5-4.86,6.01c-0.24,0.76-0.36,1.55-0.32,2.34c-0.07,4.27,7.72,9.81,11.61,13.94
			c5.24,5.77,4.27,11.84-0.22,16.33c-8.02,7.87-17.23,8.99-22.7,8.92c-5.84-0.22-5.32-3-2.32-6.07c3.15-3.22,11.24-6.97,14.76-7.87
			c1.2-0.07,0.97-1.65,0.15-1.87c-5.32,0.3-15.81,2.62-20.08,8.47c-3,4.12,3.6,11.24,12.14,10.49c8.92-0.75,15.88-2.47,22.55-8.99
			c6.22-6.29,4.05-12.81,0.75-17.83C35.8,28.38,26.21,22.01,28.98,16.09z"/>
		<path d="M54.7,14.52c0.12,0.48,0.24,0.96,0.35,1.45c0.36,1.67,0.27,3.35,0.19,5.04c-0.09,1.9,0.33,3.65,1.34,5.26
			c0.76,1.21,1.52,2.44,2.3,3.63c0.53,0.81,0.63,1.68,0.43,2.6c-0.13,0.59-0.27,1.18-0.39,1.78c-0.12,0.63-0.54,1.04-1.18,1.15
			c-0.63,0.11-1.25,0.24-1.87,0.38c-0.78,0.18-1.34-0.08-1.57-0.84c-0.12-0.39-0.16-0.84-0.09-1.24c0.13-0.74-0.13-1.14-0.77-1.52
			c-1.75-1.04-3.41-2.21-4.7-3.81c-0.44-0.55-0.77-1.18-1.17-1.8c0.42-0.24,0.73-0.43,1.12-0.65c-4.87,0.03-8.81-4.71-6.05-9.34
			c-1,0.73-1.72,1.56-2.12,2.65c-0.07,0.2-0.17,0.41-0.32,0.55c-1.84,1.66-2.57,3.75-2.34,6.18c0.11,1.24,0.56,2.36,1.49,3.24
			c0.14,0.13,0.29,0.23,0.44,0.35c-0.42-2.07,0.2-3.77,1.49-5.36c0.12,0.16,0.22,0.3,0.32,0.43c0.95,1.24,2.09,2.23,3.63,2.67
			c0.42,0.12,0.65,0.32,0.84,0.69c1.05,2.03,2.57,3.58,4.68,4.53c0.47,0.21,0.9,0.49,1.32,0.79c0.75,0.53,1.11,1.27,1.13,2.2
			c0.03,1.29,1.52,2.33,2.79,1.99c0.82-0.22,1.66-0.43,2.49-0.59c0.76-0.14,1.29-0.5,1.54-1.24c0.39-1.13,0.83-2.25,1.19-3.39
			c0.35-1.13,0.16-2.22-0.5-3.22c-0.24-0.36-0.52-0.7-0.78-1.05c-1.74-2.33-2.9-4.86-3.12-7.83C56.63,18.14,55.74,16.27,54.7,14.52z
			"/>
		<path d="M49.68,5.3c-0.83,1.07-1.72,2.09-1.73,3.55c0.8-1.14,1.96-1.85,3.01-2.71c0.53-0.43,1.04-0.89,1.5-1.4
			c0.64-0.7,1.03-1.53,1.16-2.57c-1.03,0.82-2.2,1.1-3.37,1.35c-0.93,0.2-1.86,0.38-2.76,0.67C45.76,4.75,44.81,6,44.49,7.91
			C45.89,6.22,47.73,5.67,49.68,5.3z"/>
		<path d="M53.09,6.63c0.01,0.04,0.02,0.08,0.03,0.12c0.58-0.03,1.16-0.05,1.8-0.08c-0.2,0.58-0.39,1.14-0.59,1.71
			c0.03,0.02,0.07,0.05,0.1,0.07c1.36-1.01,1.59-2.72,2.57-4.09c-0.76,0.11-1.26,0.41-1.75,0.83c-0.54,0.46-1.14,0.84-1.73,1.24
			C53.39,6.51,53.23,6.56,53.09,6.63z"/>
		<path d="M55.47,12.67c-0.4-0.48-0.6-1.09-0.61-1.72c-0.01-0.89-0.31-1.77-0.82-2.49c-0.23-0.33-0.51-0.61-0.81-0.87
			c-0.18-0.16-0.38-0.3-0.58-0.43c-0.04-0.02-0.32-0.17-0.43-0.24c-0.02-0.01-0.04,0-0.04,0.02c-0.11,1.21-0.91,2.38-2.07,2.8
			c-0.61,0.22-1.31,0.15-1.94,0.08c-0.81-0.09-1.6-0.29-2.4-0.47c-1.03-0.23-2.1-0.42-3.14-0.24c-1.32,0.22-2.52,1.04-3.26,2.15
			c-0.02,0.03,0.02,0.06,0.04,0.04c1.2-0.87,2.7-1.32,4.18-1.28c0.86,0.02,1.63,0.3,2.4,0.67c0.85,0.4,1.71,0.75,2.64,0.96
			c1,0.23,1.75,0.18,1.95,0.16c0.01,0,0.01,0.01,0,0.02c-0.1,0.04-0.2,0.08-0.3,0.12c-0.84,0.31-1.72,0.42-2.61,0.48
			c-0.15,0.01-0.31,0.02-0.46,0.02c-0.97,0.03-1.93-0.12-2.89-0.24c-0.07-0.01-0.22-0.04-0.26-0.05c0.26,0.08,1.16,0.41,1.42,0.48
			c0.52,0.14,1.05,0.27,1.57,0.38c0.95,0.2,1.93,0.35,2.91,0.29c0.78-0.05,1.44-0.34,2.06-0.81c0.27-0.21,0.53-0.44,0.78-0.68
			c0.09-0.09,0.3-0.29,0.3-0.26c0.04,0.29,0.24,1.26,1.24,1.91c0.56,0.37,1.21,0.48,1.78,0.8c0.38,0.21,0.59,0.61,0.71,1.02
			c0.09,0.33,0.07,0.65,0.08,0.98c0,0.06,0.09,0.08,0.12,0.02c0.24-0.5,0.45-1.08,0.4-1.63c-0.06-0.53-0.51-0.79-0.91-1.07
			C56.14,13.31,55.77,13.02,55.47,12.67z"/>
		<path d="M122.3,46.58c-1.86,2.33-6.95,9.71-10.94,9.24c-1.4-0.17-1.95-1.48-1.91-2.67c0.04-0.68,0.21-1.44,0.51-2.25
			c3.43-1.4,9.45-4.45,9.79-6.61c0.3-1.87-2.97-4.83-5.89-3.43c-2.36,1.12-5.29,4.64-6.57,8.16c-2.17,2.86-5.36,6.56-6.49,6.97
			c-2.84,1.02-0.13-5.98,2.75-11.87c3.18-6.53,5.04-9.62,5.43-10.85c0.25-0.89-2.12-2.03-2.54-0.98c0.04,1.06-2.5,5.13-5,9.83
			c-1.31,2.47-2.29,4.52-3.01,6.24c-2.05,2.59-5.35,6.48-6.61,7.11c-2.63,1.44-0.3-6.19,2.25-11.36c4.71-9.88,6.27-11.91,6.91-13.06
			c0.51-0.85-2.54-0.81-3.43,0.3c-2.2,3.52-4.03,7.59-5.77,10.94c-1.14-0.89-3.22-1.82-5.3-0.89c-2.4,1.08-5.06,4.81-6.56,8.2
			c-2,2.44-4.54,5.33-5.61,5.87c-2.63,1.44-0.3-6.19,2.25-11.36c4.71-9.88,6.27-11.91,6.91-13.06c0.51-0.85-2.54-0.81-3.43,0.3
			c-2.2,3.52-4.03,7.59-5.77,10.94c-1.14-0.89-3.22-1.82-5.3-0.89c-2.46,1.11-5.19,5-6.67,8.45c-2.03,2.56-4.78,5.63-6.09,5.8
			c-1.53,0.21-1.44-2.12-0.34-4.58c1.02-2.08,1.31-2.71,1.95-3.56c0.34-0.42-0.04-1.14-0.55-1.7c0.68-0.08,2.33-1.19,2.84-2.29
			c0.55-1.44-2.8-3.69-5-3.22c-1.95,0.42-4.41,1.44-7.55,4.92c-3.01,3.35-4.75,7.67-4.41,9.62c0.25,1.48,2.71,2.88,3.9,2.33
			c1.87-0.93,4.92-4.49,6.1-6.27c-0.76,1.57-0.97,3.98-0.21,4.75c1.19,1.19,3.05,2.29,5.13,0.85c0.92-0.64,2.08-1.87,3.21-3.26
			c-0.09,0.67-0.09,1.26,0.06,1.69c0.59,1.74,3.01,2.33,3.82,1.91c1.4-0.68,3.73-3.31,5.51-5.72c-0.34,1.44-0.42,2.46-0.3,3.31
			c0.34,2.63,3.69,3.14,5.04,2.33c0.79-0.43,2.06-1.8,3.36-3.39c-0.08,0.62-0.06,1.16,0.08,1.57c0.59,1.74,3.01,2.33,3.82,1.91
			c1.4-0.68,3.73-3.31,5.51-5.72c-0.34,1.44-0.42,2.46-0.3,3.31c0.34,2.63,3.69,3.14,5.04,2.33c0.94-0.52,2.59-2.38,4.14-4.36
			c-0.25,1.09-0.32,1.94-0.24,2.62c0.34,2.33,3.69,3.09,5.04,2.33c1.09-0.56,3.06-2.79,4.79-5.08c0,0.66,0.09,1.28,0.29,1.86
			c1.02,2.84,5.21,4.03,7.71,2.71c3.6-1.91,7.38-7.38,8.73-10.09C123.36,46.25,122.76,46.08,122.3,46.58z M117.17,42.26
			c1.87,1.02-2.67,4.83-6.49,6.91C112.59,45.4,116.07,41.71,117.17,42.26z M46.25,55.49c-0.93-0.17,0.08-3.69,3.69-8.65
			c2.2-3.05,6.49-5.6,7.67-4.96c1.06,0.59-0.51,2.92-0.64,3.69c-0.51-0.34-1.02-0.47-1.27-0.04C54.09,48.45,47.81,55.78,46.25,55.49
			z M64.22,55.27c-1.65-0.08,3.6-11.23,6.74-12.55c1.1-0.47,2.03,0.04,2.76,0.68l-1.48,3.18C70.32,49.93,65.36,55.36,64.22,55.27z
			 M81.73,55.27c-1.65-0.08,3.6-11.23,6.74-12.55c1.1-0.47,2.03,0.04,2.76,0.68l-1.48,3.18C87.83,49.93,82.87,55.36,81.73,55.27z"/>
		<path d="M158.04,32.6c0.34-0.38,0.13-0.93-0.47-1.1c-1.78,1.02-8.18,0.42-12.72,0.25c-5.38-0.25-14.16-0.3-16.66,3.39
			c-2.25,3.43,0.81,5.98,2.37,5.72c0.08-0.08,0.08-0.42,0-0.55c-0.64,0.04-1.23-1.4-0.13-3.14c0.98-1.57,4.32-3.81,13.65-3.81h2.08
			c-1.48,2.16-4.15,7.21-5.55,9.75l-1.06,2.03c-2.88,0.47-5.43,0.89-6.15,0.64c-1.23,0.42-0.89,2.12,0.38,2.16
			c0.89,0.04,2.67-0.3,4.71-0.76c-2.12,4.11-4.83,9.66-5.13,11.7c-0.21,1.19,1.53,2.08,2.59,1.87c0.21-1.57,2.37-7.5,6.02-14.33
			c2.5-0.51,4.87-0.93,6.02-0.68c0.89-0.08,1.57-1.14,0-1.4c-1.1-0.17-2.97,0-5.04,0.25c2.92-5.26,5.26-8.94,6.27-10.3
			c0.17-0.25,0.04-0.55-0.21-0.85C154.01,33.53,157.19,33.66,158.04,32.6z"/>
		<path d="M158.16,36.41c-1.06,0.76-0.85,2.2,0.17,2.33c1.06,0.13,2.25-0.13,2.88-0.64c0.59-0.47,0.98-1.36,0.38-1.82
			C160.75,35.56,159.18,35.69,158.16,36.41z"/>
		<path d="M209.16,46.75c-1.44,2.2-7.21,9.16-8.44,8.9c-2.2-0.38,1.27-7.84,3.39-10.64c1.4-1.78,0.17-2.33-1.14-2.67
			c-0.68-0.17-2.8-0.04-3.48-0.04c0.64-0.98,1.65-3.35,1.78-4.11c0.13-0.81-1.14-1.82-1.78-1.57c-0.97,0.38-2.92,4.15-2.46,5.51
			c0.04,0.25,0.21,0.42,0.47,0.55c-0.65,1.2-2.13,3.42-3.21,5.03c-2.29,2.98-6.59,8.51-10.06,8.11c-1.4-0.17-1.95-1.48-1.91-2.67
			c0.04-0.68,0.21-1.44,0.51-2.25c3.43-1.4,9.45-4.45,9.79-6.61c0.3-1.87-2.97-4.83-5.89-3.43c-2.28,1.09-5.11,4.41-6.44,7.83
			c-2.15,2.68-5.46,6.55-6.61,6.93c-2.97,0.98,0.04-6.36,2.33-11.57c0.21-0.51,0.47-1.06,0.76-1.61c1.87,0,3.52,0.04,3.86,0.21
			c0.68,0.04,1.06-0.59,0.59-1.19c-0.21-0.25-1.91-0.3-3.81-0.3c1.44-2.67,2.97-5.09,3.18-6.02s-1.4-1.86-2.2-1.27
			c-0.25,0.85-1.4,2.54-3.9,7.33c-1.57,0.04-2.88,0.04-3.18-0.04c-0.11,0.04-0.21,0.09-0.29,0.15c-0.64-0.13-1.97-0.15-3.44-0.15
			c1.44-2.67,2.97-5.09,3.18-6.02s-1.4-1.86-2.2-1.27c-0.25,0.85-1.4,2.54-3.9,7.33c-1.57,0.04-2.88,0.04-3.18-0.04
			c-0.89,0.34-1.02,1.36-0.17,1.36c0.3,0,1.36-0.04,2.71-0.04c-0.96,1.87-1.73,3.5-2.34,4.93c-1.71,2.45-6.05,7.88-8.04,8.26
			c-1.65,0.3-1.02-2.92,1.36-7.5c1.4-2.71,2.16-3.56,2.42-4.49c0.25-1.14-2.03-1.95-2.54-1.27c-0.13,1.14-1.61,2.8-3.26,6.23
			c-1.91,3.94-1.82,6.23-0.85,7.29c0.97,1.02,2.88,1.82,5,0.55c1.07-0.65,2.82-2.53,4.36-4.52c-0.24,1.07-0.3,1.92-0.2,2.61
			c0.34,2.33,3.56,3.05,5.09,2.33c1.21-0.58,3.29-2.99,5.04-5.31c-0.31,1.24-0.4,2.22-0.29,2.98c0.34,2.33,3.56,3.05,5.09,2.33
			c1.14-0.55,3.04-2.71,4.72-4.9c-0.03,0.76,0.05,1.48,0.28,2.14c1.02,2.84,5.21,4.03,7.71,2.71c2.92-1.54,5.95-5.43,7.71-8.29
			c1.36-1.98,2.85-4.19,3.73-5.53c1.23,0.21,2.5,0.3,1.95,1.19c-0.89,1.61-4.28,6.95-3.73,10.13c0.34,2.46,3.6,3.43,5.34,2.12
			c2.54-1.95,6.66-7.21,7.59-9.33C210.22,46.46,209.46,46.5,209.16,46.75z M163.85,55.61c-2.97,0.98,0.04-6.36,2.33-11.57
			c0.21-0.51,0.47-1.06,0.76-1.61c1.87,0,3.52,0.04,3.86,0.21c0.2,0.01,0.37-0.04,0.51-0.13c0.43-0.01,1.38-0.04,2.54-0.04
			c-0.94,1.83-1.69,3.42-2.3,4.83C169.68,49.73,165.23,55.16,163.85,55.61z M190.04,42.26c1.87,1.02-2.67,4.83-6.49,6.91
			C185.47,45.4,188.94,41.71,190.04,42.26z"/>
	</g>
</g>
</svg>
